# xmcd CD database file
#
# Track frame offsets:
#	150
#	5860
#	13498
#	29275
#	43594
#	59021
#	77791
#	92260
#	104274
#	116619
#	130974
#	146763
#	168416
#	195807
#	209556
#	221949
#	238521
#	261583
#	274761
#	290031
#
# Disc length: 4153 seconds
#
# Revision: 1
# Processed by: cddbd v1.5.2PL0 Copyright (c) Steve Scherf et al.
# Submitted via: CDex 1.50
#
DISCID=37103714
DTITLE=Western Film Themes - The Essential Album
DYEAR=2006
DGENRE=Soundtrack
TTITLE0=The High Chaparral
TTITLE1=Bonanza
TTITLE2=The Lone Ranger
TTITLE3=Wagon Train
TTITLE4=For A Few Dollars More
TTITLE5=A Fistful Of Dynamite
TTITLE6=Butch Cassidy And The Sundance Kid
TTITLE7=The Comancheros
TTITLE8=One-Eyed Jacks
TTITLE9=The Unforgiven
TTITLE10=Villa Rides
TTITLE11=Wyatt Earp
TTITLE12=Once Upon A Time In The West - main theme
TTITLE13=The Big Valley
TTITLE14=Hang 'Em High
TTITLE15=The Quick And The Dead
TTITLE16=Rio Bravo
TTITLE17=The Scalphunters
TTITLE18=The Shootist
TTITLE19=The Wild Wild West
EXTD=CD2 YEAR: 2006
EXTT0=
EXTT1=
EXTT2=
EXTT3=
EXTT4=
EXTT5=
EXTT6=
EXTT7=
EXTT8=
EXTT9=
EXTT10=
EXTT11=
EXTT12=
EXTT13=
EXTT14=
EXTT15=
EXTT16=
EXTT17=
EXTT18=
EXTT19=
PLAYORDER=
